<?xml version="1.0" encoding="UTF-8"?>
<!DOCTYPE svg PUBLIC "-//W3C//DTD SVG 1.1//EN" "http://www.w3.org/Graphics/SVG/1.1/DTD/svg11.dtd">
<svg xmlns="http://www.w3.org/2000/svg" version="1.1" width="36px" height="36px" style="shape-rendering:geometricPrecision; text-rendering:geometricPrecision; image-rendering:optimizeQuality; fill-rule:evenodd; clip-rule:evenodd" xmlns:xlink="http://www.w3.org/1999/xlink">
<g><path style="opacity:0.813" fill="#2095f2" d="M 19.5,2.5 C 20.2625,3.26791 21.2625,3.76791 22.5,4C 21.9152,5.30238 21.2485,6.46905 20.5,7.5C 19.0119,4.81359 18.3453,5.14692 18.5,8.5C 17.8333,8.5 17.1667,8.5 16.5,8.5C 16.6547,5.14692 15.9881,4.81359 14.5,7.5C 13.391,7.44312 12.391,7.10978 11.5,6.5C 10.609,7.10978 9.60895,7.44312 8.5,7.5C 7.50838,7.67158 6.84171,7.33825 6.5,6.5C 10.0305,2.99669 14.3639,1.66336 19.5,2.5 Z"/></g>
<g><path style="opacity:0.918" fill="#2295f4" d="M 19.5,2.5 C 24.1608,2.52948 27.4941,4.52948 29.5,8.5C 21.5,9.83333 13.5,9.83333 5.5,8.5C 5.32842,7.50838 5.66175,6.84171 6.5,6.5C 6.84171,7.33825 7.50838,7.67158 8.5,7.5C 9.9473,8.88516 10.9473,8.55182 11.5,6.5C 12.391,7.10978 13.391,7.44312 14.5,7.5C 14.8417,8.33825 15.5084,8.67158 16.5,8.5C 17.1667,8.5 17.8333,8.5 18.5,8.5C 19.4916,8.67158 20.1583,8.33825 20.5,7.5C 21.2485,6.46905 21.9152,5.30238 22.5,4C 21.2625,3.76791 20.2625,3.26791 19.5,2.5 Z M 11.5,6.5 C 10.9473,8.55182 9.9473,8.88516 8.5,7.5C 9.60895,7.44312 10.609,7.10978 11.5,6.5 Z M 23.5,6.5 C 24.4734,6.98672 25.4734,7.48672 26.5,8C 24.8425,8.72516 23.8425,8.22516 23.5,6.5 Z"/></g>
<g><path style="opacity:0.786" fill="#2297f2" d="M 5.5,8.5 C 13.5,9.83333 21.5,9.83333 29.5,8.5C 31.4759,9.42714 31.8092,10.7605 30.5,12.5C 29.3887,11.3887 28.0554,10.722 26.5,10.5C 25.2141,10.8515 24.3808,11.5182 24,12.5C 21.7694,9.94899 19.6028,9.94899 17.5,12.5C 15.3972,9.94899 13.2306,9.94899 11,12.5C 10.6192,11.5182 9.78591,10.8515 8.5,10.5C 6.94458,10.722 5.61125,11.3887 4.5,12.5C 3.19075,10.7605 3.52409,9.42714 5.5,8.5 Z"/></g>
<g><path style="opacity:0.789" fill="#3e52b2" d="M 12.5,13.5 C 15.8333,13.5 19.1667,13.5 22.5,13.5C 21.9084,16.1272 21.5751,18.7938 21.5,21.5C 18.8333,21.5 16.1667,21.5 13.5,21.5C 13.4249,18.7938 13.0916,16.1272 12.5,13.5 Z"/></g>
<g><path style="opacity:0.816" fill="#3e50b5" d="M 2.5,13.5 C 5.5,13.5 8.5,13.5 11.5,13.5C 11.4249,16.2062 11.0916,18.8728 10.5,21.5C 8.87623,21.6399 7.70956,20.9733 7,19.5C 6.29044,20.9733 5.12377,21.6399 3.5,21.5C 2.90843,18.8728 2.5751,16.2062 2.5,13.5 Z"/></g>
<g><path style="opacity:0.816" fill="#3e50b5" d="M 23.5,13.5 C 26.5,13.5 29.5,13.5 32.5,13.5C 32.4249,16.2062 32.0916,18.8728 31.5,21.5C 29.8762,21.6399 28.7096,20.9733 28,19.5C 27.2904,20.9733 26.1238,21.6399 24.5,21.5C 23.9084,18.8728 23.5751,16.2062 23.5,13.5 Z"/></g>
<g><path style="opacity:0.899" fill="#2298f3" d="M 28.5,28.5 C 27.5084,28.6716 26.8417,28.3382 26.5,27.5C 25.791,26.596 24.791,26.2627 23.5,26.5C 22.5,26.5 21.5,26.5 20.5,26.5C 19.8333,26.5 19.1667,26.5 18.5,26.5C 17.8333,26.5 17.1667,26.5 16.5,26.5C 15.1667,26.5 14.5,27.1667 14.5,28.5C 15.4054,29.9643 15.4054,31.2976 14.5,32.5C 9.32271,31.5826 5.65604,28.7492 3.5,24C 3.83333,23.5 4.16667,23 4.5,22.5C 5.61125,23.6113 6.94458,24.278 8.5,24.5C 9.78591,24.1485 10.6192,23.4818 11,22.5C 13.2306,25.051 15.3972,25.051 17.5,22.5C 19.6028,25.051 21.7694,25.051 24,22.5C 24.3808,23.4818 25.2141,24.1485 26.5,24.5C 32.302,22.2127 32.9687,23.5461 28.5,28.5 Z M 8.5,27.5 C 9.3864,26.2241 10.3864,26.2241 11.5,27.5C 10.7666,28.087 9.76662,28.087 8.5,27.5 Z M 23.5,26.5 C 24.791,26.2627 25.791,26.596 26.5,27.5C 25.5041,27.4142 24.6708,27.7476 24,28.5C 23.5357,27.9056 23.369,27.2389 23.5,26.5 Z"/></g>
<g><path style="opacity:0.814" fill="#2095f3" d="M 16.5,26.5 C 17.1667,26.5 17.8333,26.5 18.5,26.5C 18.7373,30.2887 19.4039,30.2887 20.5,26.5C 21.5,26.5 22.5,26.5 23.5,26.5C 23.369,27.2389 23.5357,27.9056 24,28.5C 24.6708,27.7476 25.5041,27.4142 26.5,27.5C 26.8417,28.3382 27.5084,28.6716 28.5,28.5C 24.6236,32.0643 19.957,33.3976 14.5,32.5C 15.4054,31.2976 15.4054,29.9643 14.5,28.5C 16.2027,29.6602 16.8693,28.9935 16.5,26.5 Z M 18.5,26.5 C 19.1667,26.5 19.8333,26.5 20.5,26.5C 19.4039,30.2887 18.7373,30.2887 18.5,26.5 Z"/></g>
</svg>
