<?xml version="1.0" encoding="UTF-8"?>
<!DOCTYPE svg PUBLIC "-//W3C//DTD SVG 1.1//EN" "http://www.w3.org/Graphics/SVG/1.1/DTD/svg11.dtd">
<svg xmlns="http://www.w3.org/2000/svg" version="1.1" width="2000px" height="2000px" style="shape-rendering:geometricPrecision; text-rendering:geometricPrecision; image-rendering:optimizeQuality; fill-rule:evenodd; clip-rule:evenodd" xmlns:xlink="http://www.w3.org/1999/xlink">
<g><path style="opacity:1" fill="#fefefe" d="M -0.5,-0.5 C 666.167,-0.5 1332.83,-0.5 1999.5,-0.5C 1999.5,666.167 1999.5,1332.83 1999.5,1999.5C 1332.83,1999.5 666.167,1999.5 -0.5,1999.5C -0.5,1332.83 -0.5,666.167 -0.5,-0.5 Z"/></g>
<g><path style="opacity:1" fill="#fc2b25" d="M 600.5,999.5 C 537.058,963.276 473.725,926.776 410.5,890C 376.12,873.784 341.12,872.284 305.5,885.5C 448.11,802.522 591.11,720.022 734.5,638C 789.968,616.958 838.135,627.791 879,670.5C 909.119,708.654 915.786,750.654 899,796.5C 888.277,821.553 871.444,841.387 848.5,856C 765.607,903.608 682.94,951.441 600.5,999.5 Z"/></g>
<g><path style="opacity:1" fill="#01aa47" d="M 1693.5,1113.5 C 1654.8,1127.95 1617.47,1125.12 1581.5,1105C 1520.8,1069.32 1459.8,1034.15 1398.5,999.5C 1314.23,950.693 1229.9,901.86 1145.5,853C 1101.27,820.009 1084.11,776.175 1094,721.5C 1108.77,671.391 1141.61,640.558 1192.5,629C 1227.36,624.05 1259.36,631.383 1288.5,651C 1428,731.919 1567.67,812.586 1707.5,893C 1753.27,922.717 1773.1,964.884 1767,1019.5C 1758.02,1063.19 1733.52,1094.53 1693.5,1113.5 Z"/></g>
<g><path style="opacity:1" fill="#1f86fa" d="M 600.5,999.5 C 686.104,1049.31 771.77,1099.14 857.5,1149C 900.373,1182.94 915.873,1226.78 904,1280.5C 887.564,1332.61 852.398,1362.78 798.5,1371C 769.308,1373.83 742.308,1367.5 717.5,1352C 575.5,1270 433.5,1188 291.5,1106C 252.074,1081.51 231.74,1045.84 230.5,999C 233.186,946.06 258.186,908.226 305.5,885.5C 341.12,872.284 376.12,873.784 410.5,890C 473.725,926.776 537.058,963.276 600.5,999.5 Z"/></g>
<g><path style="opacity:1" fill="#feb801" d="M 1398.5,999.5 C 1459.8,1034.15 1520.8,1069.32 1581.5,1105C 1617.47,1125.12 1654.8,1127.95 1693.5,1113.5C 1550.89,1196.48 1407.89,1278.98 1264.5,1361C 1217.62,1379.72 1174.29,1373.72 1134.5,1343C 1094.31,1305.06 1082.14,1259.56 1098,1206.5C 1107.51,1181.33 1123.34,1161.16 1145.5,1146C 1229.9,1097.14 1314.23,1048.31 1398.5,999.5 Z"/></g>
</svg>
